HIERARCHY
ROOT hip
{
  OFFSET 0.0 0.0 0.0
  CHANNELS 6 Xposition Yposition Zposition Zrotation Yrotation Xrotation
  JOINT torso
  {
    OFFSET 0.0 0.0 0.0
    CHANNELS 3 Zrotation Xrotation Yrotation
    JOINT neck
    {
      OFFSET -31.42098999999993 328.8025209999999 74.3554680000002
      CHANNELS 3 Zrotation Xrotation Yrotation
      JOINT head
      {
        OFFSET 3.3519900000001144 303.81732099999994 206.53942900000015
        CHANNELS 3 Zrotation Xrotation Yrotation
        End Site
        {
          OFFSET 0.0 0.0 0.0
        }
      }
    }
    JOINT left_collar
    {
      OFFSET -31.42098999999993 328.8025209999999 74.3554680000002
      CHANNELS 3 Zrotation Xrotation Yrotation
      JOINT left_upper_arm
      {
        OFFSET -124.490479 -8.162841999999841 8.226441000000023
        CHANNELS 3 Zrotation Xrotation Yrotation
        JOINT left_forearm
        {
          OFFSET -253.595764 -1.5758060000000569 105.0729980000001
          CHANNELS 3 Zrotation Xrotation Yrotation
          JOINT left_hand
          {
            OFFSET -269.48803699999996 0.1478270000000066 -55.346191999999974
            CHANNELS 3 Zrotation Xrotation Yrotation
            End Site
            {
              OFFSET 0.0 0.0 0.0
            }
          }
        }
      }
    }
    JOINT right_collar
    {
      OFFSET -31.42098999999993 328.8025209999999 74.3554680000002
      CHANNELS 3 Zrotation Xrotation Yrotation
      JOINT right_upper_arm
      {
        OFFSET 162.02484099999998 0.46441600000002836 2.2303470000001653
        CHANNELS 3 Zrotation Xrotation Yrotation
        JOINT right_forearm
        {
          OFFSET 240.01246700000004 -25.835875999999985 121.34179699999959
          CHANNELS 3 Zrotation Xrotation Yrotation
          JOINT right_hand
          {
            OFFSET 252.48539699999992 18.910399999999868 -67.53466800000001
            CHANNELS 3 Zrotation Xrotation Yrotation
            End Site
            {
              OFFSET 0.0 0.0 0.0
            }
          }
        }
      }
    }
  }
}
MOTION
Frames: 9
Frame Time: 0.01
-275.0339148750473 211.97590058508908 1443.489831804637 2.5004586636523904 -1.184528617587685 -5.841996779017036 0.48010707346135617 -1.4643492229388877 -0.2540185112616161 -3.1580659656616716 -4.7586724736402894 2.267562872332799 0.0 0.0 0.0 4.557637659535615 -0.3384534144654917 6.069346537013908 40.78695555190814 8.240438816546995 22.782059866820052 44.60693791598381 -4.4531799307346125 -12.396070640430302 0.0 0.0 0.0 1.5286500798741436 -0.09988085787123392 4.857605738703441 -29.61267900054793 5.0233972487019365 -26.005951221184688 -70.26708590258089 -10.47293614650452 15.987392223555608 0.0 0.0 0.0
-274.5821229669369 211.9212164912749 1443.5999311543812 2.569784083032304 -1.2698216292944497 -5.927825266158956 0.4999992788634976 -1.4487743671236393 -0.2572188571521248 -3.1860946695755388 -4.7335020026044194 2.2866257603967237 0.0 0.0 0.0 4.543855043057865 -0.33429888830722077 6.028186039507118 40.77789282783231 8.247890514645743 22.757787690625058 44.59264963848696 -4.430346442304878 -12.447605455952786 0.0 0.0 0.0 1.5218698943499698 -0.09920649181541369 4.839510408640239 -30.08483931469618 4.908800084175492 -26.639955769030603 -69.2711701563714 -10.25492161237343 16.081717075284264 0.0 0.0 0.0
-274.11475101395604 211.85920188315566 1443.7157706949356 2.6408778555472567 -1.3558888814797043 -6.0175444267106535 0.5198748357585853 -1.433079023533712 -0.26039818279163185 -3.2145176968572735 -4.708300135213161 2.3059584892973204 0.0 0.0 0.0 4.529863751607633 -0.3301163159621853 5.986636956054613 40.76677248410367 8.254876096884276 22.73352008106839 44.57904195693729 -4.407274671454306 -12.499939225325692 0.0 0.0 0.0 1.5148620253383305 -0.0985198937829787 4.821312438070756 -30.550624182150163 4.789531435701741 -27.268165776993055 -68.28866185395493 -10.02770732831486 16.201971697227584 0.0 0.0 0.0
-273.62314741622396 211.78648238452837 1443.8385253968252 2.7143082070677504 -1.4428256292437365 -6.112994302598002 0.5394092817320723 -1.4175802935624737 -0.26351071474762544 -3.243296405238669 -4.683341485362078 2.325540635113949 0.0 0.0 0.0 4.515886115578152 -0.32592780791201353 5.9449359261666395 40.75300025782494 8.261437276669596 22.708805217926262 44.56553915340784 -4.384071456468295 -12.552659050542674 0.0 0.0 0.0 1.5077019718034446 -0.0978239017599458 4.80291857519237 -31.00544967632341 4.667661924875611 -27.88272142422494 -67.33007562914698 -9.794862369004408 16.345964340713984 0.0 0.0 0.0
-273.0980958819793 211.69962288735863 1443.969268736924 2.7906335445730175 -1.5307752317142909 -6.216070319266886 0.5583048056593486 -1.4025684623513472 -0.2665147189784443 -3.272367250504639 -4.658937801393203 2.3453353921225273 0.0 0.0 0.0 4.502141768983123 -0.3217541458107555 5.903310759059054 40.73598653378942 8.267632542108746 22.683148960517897 44.55147788474189 -4.360861723365094 -12.605287483687636 0.0 0.0 0.0 1.5004738161052098 -0.09712155736107325 4.784219968593755 -31.44504384676422 4.545435189396675 -28.476075857111432 -66.40532048630148 -9.560107849308382 16.510600281142064 0.0 0.0 0.0
-272.53008317887895 211.59522820664006 1444.1089015452978 2.8703726397037803 -1.6199208732201964 -6.328659866937981 0.5763015803066235 -1.3882958392585145 -0.2693740251404411 -3.3016364194578514 -4.635436013807155 2.36528579817936 0.0 0.0 0.0 4.488841153169404 -0.3176144587840193 5.8619763165914875 40.71516644141725 8.273535314177256 22.656030683919507 44.53612094512189 -4.337790328972301 -12.657282091896437 0.0 0.0 0.0 1.4932692675633394 -0.09641609864681969 4.7650952219846365 -31.865543976321963 4.425185957558376 -29.041189754278548 -65.52347272966063 -9.327149119407391 16.69205170494141 0.0 0.0 0.0
-271.9095820664411 211.47004438795045 1444.258080253239 2.9539769540699736 -1.7104755638492717 -6.452578756844453 0.5931865390290785 -1.3749676903635153 -0.2720591259538199 -3.3309758812000223 -4.613214263196884 2.385311902555845 0.0 0.0 0.0 4.476179280986876 -0.31352606250697485 5.821131749841061 40.69002003159163 8.279231488820983 22.626920688984562 44.518674654645146 -4.3150230272736 -12.70803780478774 0.0 0.0 0.0 1.4861855436829954 -0.09571090023133676 4.745414310134822 -32.26357916690737 4.3092503884351485 -29.571709313407087 -64.6925724720367 -9.099517445726946 16.88597044657852 0.0 0.0 0.0
-271.2273402626987 211.32105715067283 1444.4171468475079 3.041806396513743 -1.8026708358987893 -6.589509842377247 0.6087990845982856 -1.3627357210858586 -0.2745477883879845 -3.360221215690166 -4.592675779138825 2.4053091192143934 0.0 0.0 0.0 4.46432996964583 -0.3095044642075323 5.780959187134358 40.660091842326 8.284816481786075 22.59529853252822 44.49830953384041 -4.292746374995418 -12.756892316635916 0.0 0.0 0.0 1.479322086882873 -0.09500936045801672 4.725043313173766 -32.63633486226414 4.199874139513572 -30.062120524769277 -63.91945051997294 -8.880431551313183 17.087726737239162 0.0 0.0 0.0
-270.47466601663774 211.14558396842702 1444.5860629503015 3.134109479912621 -1.8967447102047152 -6.74094586477645 0.6230335061281508 -1.3516944016864982 -0.276825165702922 -3.3891714915060307 -4.574240579564712 2.4251479493391415 0.0 0.0 0.0 4.453440725921291 -0.3055635132185461 5.741623753667571 40.625009212919856 8.290391952648822 22.56067152753941 44.47418367816691 -4.271166435880089 -12.80313466710387 0.0 0.0 0.0 1.4727762866858398 -0.0943147438330325 4.703849829973516 -32.981596326247775 4.099124152523598 -30.507872811893133 -63.20959309560399 -8.672687008245852 17.292654791601628 0.0 0.0 0.0
